Coordinates
version=1
nRows=22
nColumns=24
inDegrees=yes

Units are S.I. units (second, meters, Newtons, ...)
Angles are in degrees.

endheader
time	pelvis_tilt	pelvis_list	pelvis_rotation	pelvis_tx	pelvis_ty	pelvis_tz	hip_flexion_r	hip_adduction_r	hip_rotation_r	knee_angle_r	ankle_angle_r	subtalar_angle_r	mtp_angle_r	hip_flexion_l	hip_adduction_l	hip_rotation_l	knee_angle_l	ankle_angle_l	subtalar_angle_l	mtp_angle_l	lumbar_extension	lumbar_bending	lumbar_rotation
      5.50000000	     -4.07423596	     -8.36122869	     -7.22539662	     -0.93430350	      0.66227499	      0.25410973	      0.65172050	     15.04134095	      2.28001663	    -12.84583356	     19.84816353	    -11.84984701	      0.00000000	     39.81684631	    -11.18952369	     -1.53397386	    -49.31245462	     -4.71556407	    -43.10687061	      0.00000000	    -18.59467924	      3.26970085	      5.34143276
      5.51000000	     -3.99154918	     -8.03778423	     -8.58834101	     -0.92424475	      0.66289530	      0.25550819	     -0.88659982	     14.53239153	      2.75753044	    -12.18434404	     20.01841798	    -10.99817082	      0.00000000	     39.04876983	    -11.92993074	     -3.16273368	    -43.88396179	     -5.86815979	    -41.20298147	      0.00000000	    -18.75766672	      2.36986832	      6.93523217
      5.52000000	     -3.67085609	     -7.73981486	     -9.86865539	     -0.91378777	      0.66358493	      0.25674938	     -2.66161980	     13.94242245	      3.32331194	    -11.57260970	     20.11648224	    -10.23653118	      0.00000000	     37.75331207	    -12.54766946	     -4.86449320	    -38.34068214	     -6.93053140	    -38.15853016	      0.00000000	    -19.06809922	      1.49630574	      8.39660594
      5.53000000	     -3.20690560	     -7.53142886	    -11.02558697	     -0.90295253	      0.66422711	      0.25780508	     -4.51579549	     13.34617353	      3.89411441	    -11.11532495	     19.91641027	     -9.65476748	      0.00000000	     36.15063023	    -13.07506552	     -6.58791463	    -32.93647821	     -7.42293286	    -33.63677197	      0.00000000	    -19.43771225	      0.74870195	      9.71506677
      5.54000000	     -2.60988772	     -7.35746292	    -11.95970561	     -0.89166442	      0.66481263	      0.25859654	     -6.46776175	     12.71148835	      4.58772685	    -10.73636479	     19.78361587	     -9.33915861	      0.00000000	     34.32347103	    -13.38440413	     -8.27560353	    -27.76720847	     -8.03026540	    -28.67287390	      0.00000000	    -19.83871122	      0.10405689	     10.67615785
      5.55000000	     -2.11353432	     -7.25097020	    -12.71624063	     -0.88000297	      0.66518751	      0.25913589	     -8.16844879	     12.12091302	      5.08978353	    -10.61454134	     19.22225832	     -9.25025103	      0.00000000	     32.64047235	    -13.59721071	     -9.96799705	    -23.11490686	     -7.98874780	    -22.86548840	      0.00000000	    -20.03411963	     -0.35848892	     11.44920407
      5.56000000	     -1.50937666	     -7.19337778	    -13.20678590	     -0.86795411	      0.66559649	      0.25930174	     -9.86239386	     11.54508460	      5.53764688	    -10.71448246	     18.76058732	     -9.20328454	      0.00000000	     30.88474336	    -13.58805937	    -11.50927679	    -18.95463998	     -8.05036777	    -17.49176812	      0.00000000	    -20.29402803	     -0.66003830	     11.81803024
      5.57000000	     -1.02495807	     -7.14938126	    -13.51736618	     -0.85556475	      0.66590428	      0.25916126	    -11.27310832	     10.99882938	      5.71656277	    -11.07365414	     18.06231800	     -9.18601481	      0.00000000	     29.34333802	    -13.45002004	    -13.02522305	    -15.44238381	     -7.85691308	    -12.49329624	      0.00000000	    -20.35881408	     -0.81819678	     11.98164872
      5.58000000	     -0.62809510	     -7.10985168	    -13.65817575	     -0.84283466	      0.66615903	      0.25875187	    -12.47323772	     10.47857414	      5.69048917	    -11.63093348	     17.21760417	     -9.12403118	      0.00000000	     27.97541016	    -13.19490258	    -14.48116410	    -12.60603722	     -7.63210213	     -8.32366182	      0.00000000	    -20.25002324	     -0.85835879	     11.95735416
      5.59000000	     -0.28171407	     -6.97439925	    -13.68009229	     -0.82973038	      0.66638816	      0.25814491	    -13.52846595	      9.86948226	      5.51318280	    -12.31004065	     16.29619033	     -8.97294257	      0.00000000	     26.69341690	    -12.74482414	    -15.80143369	    -10.38403254	     -7.52493925	     -5.40007278	      0.00000000	    -19.96456359	     -0.93027057	     11.75176872
      5.60000000	     -0.05357179	     -6.89894673	    -13.65078194	     -0.81637897	      0.66652104	      0.25748221	    -14.42541874	      9.34970881	      5.27290468	    -13.07940167	     15.23022526	     -8.75058185	      0.00000000	     25.62479008	    -12.39073952	    -17.29345763	     -8.92869725	     -7.51764730	     -3.17728883	      0.00000000	    -19.49642237	     -0.87686514	     11.52939311
      5.61000000	      0.09328579	     -6.79026847	    -13.60616873	     -0.80271975	      0.66653694	      0.25680698	    -15.23051206	      8.80641424	      5.00936821	    -13.85463024	     14.05040274	     -8.45175955	      0.00000000	     24.66115749	    -12.02654797	    -18.74204279	     -8.09066297	     -7.62389195	     -1.90695704	      0.00000000	    -18.84195470	     -0.84153748	     11.29704800
      5.62000000	      0.19406227	     -6.62654457	    -13.56200485	     -0.78876318	      0.66642524	      0.25615282	    -15.98709903	      8.20969582	      4.70226061	    -14.60720364	     12.73903731	     -8.12266811	      0.00000000	     23.74452021	    -11.63565405	    -20.08606907	     -7.77618060	     -7.70135074	     -1.36533046	      0.00000000	    -18.04836236	     -0.87241828	     11.06043300
      5.63000000	      0.15073059	     -6.38527006	    -13.52526505	     -0.77458882	      0.66608495	      0.25549362	    -16.53366926	      7.55985645	      4.25138789	    -15.41563525	     11.30187465	     -7.77710164	      0.00000000	     22.94349790	    -11.17464755	    -20.98343935	     -7.79668169	     -7.73120004	     -1.57487286	      0.00000000	    -17.02681692	     -0.97204636	     10.84028868
      5.64000000	      0.18506992	     -5.94303490	    -13.47249009	     -0.76027757	      0.66575088	      0.25487421	    -17.09186027	      6.72453218	      3.90193967	    -16.24258684	      9.71598871	     -7.58004163	      0.00000000	     22.04353986	    -10.46480761	    -21.57191924	     -8.02853730	     -7.47753520	     -2.11906309	      0.00000000	    -16.05314387	     -1.37864614	     10.45213957
      5.65000000	      0.23213269	     -5.43033119	    -13.35752659	     -0.74604350	      0.66547627	      0.25415986	    -17.56217494	      5.86743495	      3.57249637	    -17.12114248	      7.61951013	     -7.90576067	      0.00000000	     21.09624432	     -9.54074508	    -21.29499253	     -8.26065549	     -7.10218035	     -3.72536666	      0.00000000	    -15.15793861	     -1.89411269	     10.01713219
      5.66000000	      0.19121379	     -4.74559559	    -13.12580413	     -0.73215151	      0.66529592	      0.25332567	    -17.65566693	      4.94500659	      3.12806178	    -18.32583707	      5.24159912	     -8.46377999	      0.00000000	     20.36398929	     -8.35465625	    -20.40761683	     -8.60941852	     -6.54754936	     -5.80590845	      0.00000000	    -14.28404667	     -2.62916984	      9.39840131
      5.67000000	      0.25785022	     -3.93489119	    -12.76405599	     -0.71881032	      0.66551916	      0.25238102	    -17.52984505	      3.98467152	      2.70499117	    -19.92727123	      2.42476414	     -9.48750233	      0.00000000	     19.68204962	     -6.94806779	    -19.13341851	     -9.10625991	     -5.86912421	     -8.15462461	      0.00000000	    -13.74978832	     -3.60096685	      8.65541101
      5.68000000	      0.44060900	     -3.06088383	    -12.25398858	     -0.70619563	      0.66621650	      0.25132995	    -17.11813128	      3.06472002	      2.29839174	    -22.07261685	     -0.82858004	    -10.96478104	      0.00000000	     19.11060985	     -5.45238958	    -17.76101312	     -9.89732519	     -5.05894558	    -10.34379685	      0.00000000	    -13.64076318	     -4.73208424	      7.78022375
      5.69000000	      0.73630864	     -2.18841065	    -11.64089368	     -0.69440503	      0.66734746	      0.25019895	    -16.35540149	      2.22573626	      1.87526644	    -24.88816554	     -4.38267304	    -12.77576022	      0.00000000	     18.64256867	     -3.99875636	    -16.53427098	    -11.02973006	     -4.05583814	    -11.98700454	      0.00000000	    -13.99346232	     -5.92172793	      6.84636743
      5.70000000	      1.08919563	     -1.38372166	    -11.02288253	     -0.68342198	      0.66875008	      0.24905034	    -15.18069870	      1.49676977	      1.46533409	    -28.38207572	     -8.20249799	    -14.86687263	      0.00000000	     18.22388687	     -2.69177836	    -15.49716970	    -12.36341993	     -2.86167835	    -12.95210424	      0.00000000	    -14.71539313	     -7.05230054	      6.04217991
      5.71000000	      1.43526049	     -0.67592597	    -10.52026719	     -0.67313472	      0.67021070	      0.24793917	    -13.57332576	      0.85601419	      1.12491499	    -32.44491571	    -12.22030246	    -17.14805520	      0.00000000	     17.79671023	     -1.58023490	    -14.69795177	    -13.70433731	     -1.50008928	    -13.27571858	      0.00000000	    -15.63484197	     -8.03860520	      5.50508032
